<svg xmlns="http://www.w3.org/2000/svg" width="400" height="260" viewBox="0 0 400 260" fill="none">
  <rect width="400" height="260" rx="12" fill="#f0f4f8"/>
  <rect x="30" y="30" width="160" height="90" rx="8" fill="#e2e8f0"/>
  <rect x="210" y="30" width="160" height="90" rx="8" fill="#e2e8f0"/>
  <rect x="30" y="140" width="160" height="90" rx="8" fill="#e2e8f0"/>
  <rect x="210" y="140" width="160" height="90" rx="8" fill="#e2e8f0"/>
  <circle cx="70" cy="65" r="16" fill="#0B5FD8" opacity="0.15"/>
  <polygon points="66,58 66,72 78,65" fill="#0B5FD8"/>
  <rect x="95" y="52" width="70" height="6" rx="3" fill="#94a3b8"/>
  <rect x="95" y="64" width="50" height="6" rx="3" fill="#cbd5e1"/>
  <rect x="40" y="92" width="60" height="5" rx="2" fill="#e2e8f0" stroke="#cbd5e1" stroke-width="1"/>
  <rect x="40" y="92" width="42" height="5" rx="2" fill="#0B5FD8"/>
  <circle cx="250" cy="65" r="16" fill="#22c55e" opacity="0.15"/>
  <polygon points="246,58 246,72 258,65" fill="#22c55e"/>
  <rect x="275" y="52" width="70" height="6" rx="3" fill="#94a3b8"/>
  <rect x="275" y="64" width="50" height="6" rx="3" fill="#cbd5e1"/>
  <rect x="220" y="92" width="60" height="5" rx="2" fill="#e2e8f0" stroke="#cbd5e1" stroke-width="1"/>
  <rect x="220" y="92" width="60" height="5" rx="2" fill="#22c55e"/>
  <circle cx="70" cy="175" r="16" fill="#f59e0b" opacity="0.15"/>
  <polygon points="66,168 66,182 78,175" fill="#f59e0b"/>
  <rect x="95" y="162" width="70" height="6" rx="3" fill="#94a3b8"/>
  <rect x="95" y="174" width="50" height="6" rx="3" fill="#cbd5e1"/>
  <circle cx="250" cy="175" r="16" fill="#8b5cf6" opacity="0.15"/>
  <polygon points="246,168 246,182 258,175" fill="#8b5cf6"/>
  <rect x="275" y="162" width="70" height="6" rx="3" fill="#94a3b8"/>
  <rect x="275" y="174" width="50" height="6" rx="3" fill="#cbd5e1"/>
</svg>