<svg xmlns="http://www.w3.org/2000/svg" width="400" height="260" viewBox="0 0 400 260" fill="none">
  <rect width="400" height="260" rx="12" fill="#f0f4f8"/>
  <rect x="30" y="30" width="340" height="50" rx="8" fill="#e2e8f0"/>
  <rect x="45" y="47" width="60" height="8" rx="3" fill="#0B5FD8"/>
  <rect x="115" y="47" width="60" height="8" rx="3" fill="#94a3b8"/>
  <rect x="185" y="47" width="60" height="8" rx="3" fill="#94a3b8"/>
  <rect x="30" y="100" width="105" height="130" rx="8" fill="#e2e8f0"/>
  <rect x="147" y="100" width="105" height="130" rx="8" fill="#e2e8f0"/>
  <rect x="265" y="100" width="105" height="130" rx="8" fill="#e2e8f0"/>
  <circle cx="82" cy="135" r="18" fill="#0B5FD8" opacity="0.12"/>
  <path d="M75 135 L82 128 L89 135 M82 128 V142" stroke="#0B5FD8" stroke-width="2" stroke-linecap="round" stroke-linejoin="round" fill="none"/>
  <rect x="50" y="163" width="65" height="5" rx="2" fill="#94a3b8"/>
  <rect x="55" y="175" width="55" height="5" rx="2" fill="#cbd5e1"/>
  <rect x="45" y="195" width="75" height="22" rx="6" fill="#0B5FD8" opacity="0.1"/>
  <rect x="55" y="202" width="55" height="8" rx="3" fill="#0B5FD8"/>
  <circle cx="200" cy="135" r="18" fill="#22c55e" opacity="0.12"/>
  <path d="M193 135 L198 140 L207 130" stroke="#22c55e" stroke-width="2.5" stroke-linecap="round" stroke-linejoin="round" fill="none"/>
  <rect x="168" y="163" width="65" height="5" rx="2" fill="#94a3b8"/>
  <rect x="173" y="175" width="55" height="5" rx="2" fill="#cbd5e1"/>
  <rect x="163" y="195" width="75" height="22" rx="6" fill="#22c55e" opacity="0.1"/>
  <rect x="173" y="202" width="55" height="8" rx="3" fill="#22c55e"/>
  <circle cx="318" cy="135" r="18" fill="#8b5cf6" opacity="0.12"/>
  <path d="M311 130 L318 130 L325 130 M318 130 V142 M311 136 L325 136" stroke="#8b5cf6" stroke-width="2" stroke-linecap="round" fill="none"/>
  <rect x="285" y="163" width="65" height="5" rx="2" fill="#94a3b8"/>
  <rect x="290" y="175" width="55" height="5" rx="2" fill="#cbd5e1"/>
  <rect x="280" y="195" width="75" height="22" rx="6" fill="#8b5cf6" opacity="0.1"/>
  <rect x="290" y="202" width="55" height="8" rx="3" fill="#8b5cf6"/>
</svg>