<svg xmlns="http://www.w3.org/2000/svg" viewBox="0 0 272 272" width="32" height="32">
  <defs>
    <linearGradient id="fg1" x1="19" y1="0" x2="207" y2="189" gradientUnits="userSpaceOnUse">
      <stop offset="0" stop-color="#48ead6"/>
      <stop offset=".45" stop-color="#a1f2ff"/>
      <stop offset="1" stop-color="#60e7ff"/>
    </linearGradient>
    <linearGradient id="fg2" x1="38" y1="62" x2="172" y2="209" gradientUnits="userSpaceOnUse">
      <stop offset="0" stop-color="#18d1f8"/>
      <stop offset="1" stop-color="#00b4de"/>
    </linearGradient>
    <linearGradient id="fg3" x1="-87" y1="218" x2="263" y2="39" gradientUnits="userSpaceOnUse">
      <stop offset="0" stop-color="#2d5593"/>
      <stop offset="1" stop-color="#0262b4"/>
    </linearGradient>
  </defs>
  <path fill="url(#fg1)" d="M271.64,145.5c-1.31,19.93-7.02,38.74-16.19,55.49h-113.5c-.47.09-1.03.09-1.59.09-1.96,0-3.93-.09-5.89-.19-2.15-.09-4.4-.37-6.55-.66-1.59-.19-3.18-.37-4.68-.75-.84-.09-1.68-.28-2.53-.47-2.06-.37-4.12-.94-6.08-1.5-1.68-.47-3.27-.94-4.96-1.5-.28-.09-.56-.19-.84-.28-1.5-.56-2.9-1.12-4.3-1.68-1.68-.66-3.28-1.4-4.87-2.06l-.09-.09c-.19-.09-.37-.19-.56-.28-.28-.09-.66-.28-.94-.47-2.9-1.4-5.61-2.99-8.33-4.68-.09,0-.28-.09-.37-.19-1.12-.66-2.15-1.4-3.18-2.15-.19-.09-.28-.19-.37-.28-1.31-.84-2.62-1.78-3.84-2.81h-.09c-.94-.75-1.87-1.59-2.81-2.25-.94-.84-1.78-1.5-2.62-2.25-.94-.75-1.78-1.59-2.62-2.43l-2.53-2.53c-2.25-2.25-4.3-4.68-6.27-7.11-1.03-1.22-1.96-2.53-2.9-3.84-1.87-2.53-3.65-5.24-5.33-7.95-3.46-5.8-6.27-12.07-8.51-18.53-.75-2.06-1.31-4.12-1.87-6.18-.47-1.59-.94-3.27-1.31-5.05-.66-2.9-1.12-5.8-1.5-8.89-.37-2.15-.56-4.3-.66-6.46-.19-2.34-.28-4.77-.28-7.11,0-5.24.37-10.39,1.22-15.44.19-1.59.47-3.18.84-4.68.19-1.4.47-2.71.84-4.02.19-1.12.47-2.25.94-3.37.19-1.31.56-2.53,1.03-3.74.28-1.12.66-2.25,1.12-3.37.56-1.68,1.12-3.28,1.87-4.87,1.22-3.09,2.71-6.18,4.21-9.08,1.31-2.34,2.71-4.68,4.12-6.92,1.5-2.25,3.09-4.4,4.68-6.55,1.59-2.15,3.37-4.21,5.15-6.18,1.78-2.06,3.65-3.93,5.61-5.8,1.78-1.68,3.56-3.27,5.52-4.77.56-.56,1.12-.94,1.68-1.31,1.22-1.12,2.62-2.06,3.93-2.99.66-.47,1.31-.94,1.97-1.31,1.97-1.4,4.02-2.62,6.18-3.84,2.71-1.5,5.61-2.99,8.52-4.21,1.68-.75,3.37-1.5,5.15-2.06.47-.19,1.03-.37,1.5-.56,2.34-.84,4.77-1.59,7.2-2.25.47-.19,1.03-.28,1.59-.47.56-.09,1.03-.19,1.59-.37.94-.28,2.06-.37,3.09-.66h.37c1.03-.28,2.06-.47,3.09-.56.65-.09,1.22-.19,1.78-.28,1.68-.19,3.27-.37,4.87-.47h.19q.09-.09.19-.09h.09c.37,0,.84,0,1.31-.09.37,0,.84-.09,1.22-.09.28-.09.47-.09.66-.09h1.31c-38.08,2.34-68.12,33.97-68.12,72.7,0,7.58,1.12,14.88,3.37,21.8,9.08,28.45,35.46,49.31,66.62,50.9.94.09,1.87.09,2.81.09h129.69Z"/>
  <path fill="url(#fg2)" d="M255.45,200.99c-15.47,28.59-40.93,50.97-71.74,62.48-13.3,4.97-27.56,6.86-41.76,6.86h0c-37.24,0-71.02-13.66-96.47-35.93C19.28,211.19,2.25,178.72.19,142.41c-.09-2.15-.19-4.21-.19-6.36,0-4.6.25-9.11.59-13.54.32-4.07.96-8.12,1.79-12.12.58-2.8,1.15-5.6,1.92-8.3C19.09,46.13,70.46,3.93,132.68.28q-.09,0-.19.09h-.19c-1.59.09-3.18.28-4.77.56-.66,0-1.22.09-1.87.19-1.03.09-2.06.28-3.09.56h-.09q-.09,0-.19.09c-1.12.19-2.15.37-3.18.66-.47.09-1.03.19-1.59.28-.56.19-1.12.28-1.59.47-15.81,4.21-30.04,12.26-41.64,23.3-5.89,5.43-11.04,11.7-15.44,18.53-10.2,15.91-16.19,35-16.19,55.49,0,19.09,5.15,36.96,14.13,52.21,1.68,2.71,3.46,5.43,5.33,7.95.94,1.31,1.87,2.62,2.9,3.84,1.97,2.43,4.02,4.87,6.27,7.11,1.68,1.68,3.37,3.37,5.15,4.96,1.78,1.5,3.56,2.99,5.43,4.49h.09c1.22,1.03,2.53,1.96,3.84,2.81.09.09.19.19.37.28,1.03.75,2.06,1.5,3.18,2.15.09.09.28.19.37.19,2.71,1.68,5.43,3.28,8.33,4.68.28.19.66.37.94.47.19.09.37.19.56.28,1.59.75,3.28,1.5,4.96,2.15,1.4.56,2.81,1.12,4.3,1.68,3.84,1.31,7.77,2.43,11.88,3.28.84.19,1.68.37,2.53.47,1.5.37,3.09.56,4.68.75,2.15.28,4.4.56,6.55.66,1.96.09,3.93.19,5.89.19.56,0,1.12,0,1.59-.09h113.5Z"/>
  <path fill="url(#fg3)" d="M272.01,136.05c0,3.18-.09,6.27-.37,9.45h-129.69c-.94,0-1.87,0-2.81-.09-31.16-1.59-57.55-22.46-66.62-50.9-2.25-6.92-3.37-14.22-3.37-21.8C69.15,33.97,99.19,2.34,137.27,0c74.58.75,134.74,61.38,134.74,136.05Z"/>
</svg>
