<svg xmlns="http://www.w3.org/2000/svg" xmlns:xlink="http://www.w3.org/1999/xlink" viewBox="0 0 2506.33 270.33" height="24" width="220" style="display:block">
  <defs>
    <style>
      .ftrl-c1 {
        fill: url(#ftrl-lg3);
      }

      .ftrl-c2 {
        fill: url(#ftrl-lg2);
      }

      .ftrl-c3 {
        fill: url(#ftrl-lg1);
      }

      .ftrl-c4 {
        fill: #ffffff;
      }
    </style>
    <linearGradient id="ftrl-lg1" x1="19.22" y1=".04" x2="206.64" y2="189.01" gradientUnits="userSpaceOnUse">
      <stop offset="0" stop-color="#48ead6"/>
      <stop offset=".45" stop-color="#a1f2ff"/>
      <stop offset="1" stop-color="#60e7ff"/>
    </linearGradient>
    <linearGradient id="ftrl-lg2" x1="38.48" y1="62.33" x2="171.57" y2="208.6" gradientUnits="userSpaceOnUse">
      <stop offset="0" stop-color="#18d1f8"/>
      <stop offset="1" stop-color="#00b4de"/>
    </linearGradient>
    <linearGradient id="ftrl-lg3" x1="-86.71" y1="217.55" x2="263.35" y2="39.42" gradientUnits="userSpaceOnUse">
      <stop offset="0" stop-color="#2d5593"/>
      <stop offset="1" stop-color="#0262b4"/>
    </linearGradient>
  </defs>
  <g id="Layer_1-2" data-name="Layer 1">
    <g>
      <path class="ftrl-c3" d="M271.64,145.5c-1.31,19.93-7.02,38.74-16.19,55.49h-113.5c-.47.09-1.03.09-1.59.09-1.96,0-3.93-.09-5.89-.19-2.15-.09-4.4-.37-6.55-.66-1.59-.19-3.18-.37-4.68-.75-.84-.09-1.68-.28-2.53-.47-2.06-.37-4.12-.94-6.08-1.5-1.68-.47-3.27-.94-4.96-1.5-.28-.09-.56-.19-.84-.28-1.5-.56-2.9-1.12-4.3-1.68-1.68-.66-3.28-1.4-4.87-2.06l-.09-.09c-.19-.09-.37-.19-.56-.28-.28-.09-.66-.28-.94-.47-2.9-1.4-5.61-2.99-8.33-4.68-.09,0-.28-.09-.37-.19-1.12-.66-2.15-1.4-3.18-2.15-.19-.09-.28-.19-.37-.28-1.31-.84-2.62-1.78-3.84-2.81h-.09c-.94-.75-1.87-1.59-2.81-2.25-.94-.84-1.78-1.5-2.62-2.25-.94-.75-1.78-1.59-2.62-2.43l-2.53-2.53c-2.25-2.25-4.3-4.68-6.27-7.11-1.03-1.22-1.96-2.53-2.9-3.84-1.87-2.53-3.65-5.24-5.33-7.95-3.46-5.8-6.27-12.07-8.51-18.53-.75-2.06-1.31-4.12-1.87-6.18-.47-1.59-.94-3.27-1.31-5.05-.66-2.9-1.12-5.8-1.5-8.89-.37-2.15-.56-4.3-.66-6.46-.19-2.34-.28-4.77-.28-7.11,0-5.24.37-10.39,1.22-15.44.19-1.59.47-3.18.84-4.68.19-1.4.47-2.71.84-4.02.19-1.12.47-2.25.94-3.37.19-1.31.56-2.53,1.03-3.74.28-1.12.66-2.25,1.12-3.37.56-1.68,1.12-3.28,1.87-4.87,1.22-3.09,2.71-6.18,4.21-9.08,1.31-2.34,2.71-4.68,4.12-6.92,1.5-2.25,3.09-4.4,4.68-6.55,1.59-2.15,3.37-4.21,5.15-6.18,1.78-2.06,3.65-3.93,5.61-5.8,1.78-1.68,3.56-3.27,5.52-4.77.56-.56,1.12-.94,1.68-1.31,1.22-1.12,2.62-2.06,3.93-2.99.66-.47,1.31-.94,1.97-1.31,1.97-1.4,4.02-2.62,6.18-3.84,2.71-1.5,5.61-2.99,8.52-4.21,1.68-.75,3.37-1.5,5.15-2.06.47-.19,1.03-.37,1.5-.56,2.34-.84,4.77-1.59,7.2-2.25.47-.19,1.03-.28,1.59-.47.56-.09,1.03-.19,1.59-.37.94-.28,2.06-.37,3.09-.66h.37c1.03-.28,2.06-.47,3.09-.56.65-.09,1.22-.19,1.78-.28,1.68-.19,3.27-.37,4.87-.47h.19q.09-.09.19-.09h.09c.37,0,.84,0,1.31-.09.37,0,.84-.09,1.22-.09.28-.09.47-.09.66-.09h1.31c-38.08,2.34-68.12,33.97-68.12,72.7,0,7.58,1.12,14.88,3.37,21.8,9.08,28.45,35.46,49.31,66.62,50.9.94.09,1.87.09,2.81.09h129.69Z"/>
      <path class="ftrl-c2" d="M255.45,200.99c-15.47,28.59-40.93,50.97-71.74,62.48-13.3,4.97-27.56,6.86-41.76,6.86h0c-37.24,0-71.02-13.66-96.47-35.93C19.28,211.19,2.25,178.72.19,142.41c-.09-2.15-.19-4.21-.19-6.36,0-4.6.25-9.11.59-13.54.32-4.07.96-8.12,1.79-12.12.58-2.8,1.15-5.6,1.92-8.3C19.09,46.13,70.46,3.93,132.68.28q-.09,0-.19.09h-.19c-1.59.09-3.18.28-4.77.56-.66,0-1.22.09-1.87.19-1.03.09-2.06.28-3.09.56h-.09q-.09,0-.19.09c-1.12.19-2.15.37-3.18.66-.47.09-1.03.19-1.59.28-.56.19-1.12.28-1.59.47-15.81,4.21-30.04,12.26-41.64,23.3-5.89,5.43-11.04,11.7-15.44,18.53-10.2,15.91-16.19,35-16.19,55.49,0,19.09,5.15,36.96,14.13,52.21,1.68,2.71,3.46,5.43,5.33,7.95.94,1.31,1.87,2.62,2.9,3.84,1.97,2.43,4.02,4.87,6.27,7.11,1.68,1.68,3.37,3.37,5.15,4.96,1.78,1.5,3.56,2.99,5.43,4.49h.09c1.22,1.03,2.53,1.96,3.84,2.81.09.09.19.19.37.28,1.03.75,2.06,1.5,3.18,2.15.09.09.28.19.37.19,2.71,1.68,5.43,3.28,8.33,4.68.28.19.66.37.94.47.19.09.37.19.56.28,1.59.75,3.28,1.5,4.96,2.15,1.4.56,2.81,1.12,4.3,1.68,3.84,1.31,7.77,2.43,11.88,3.28.84.19,1.68.37,2.53.47,1.5.37,3.09.56,4.68.75,2.15.28,4.4.56,6.55.66,1.96.09,3.93.19,5.89.19.56,0,1.12,0,1.59-.09h113.5Z"/>
      <path class="ftrl-c1" d="M272.01,136.05c0,3.18-.09,6.27-.37,9.45h-129.69c-.94,0-1.87,0-2.81-.09-31.16-1.59-57.55-22.46-66.62-50.9-2.25-6.92-3.37-14.22-3.37-21.8C69.15,33.97,99.19,2.34,137.27,0c74.58.75,134.74,61.38,134.74,136.05Z"/>
      <g>
        <path class="ftrl-c4" d="M490.45,204.56c-1.8,1.51-5.15,3.53-10.04,6.09-4.89,2.56-10.87,4.82-17.94,6.77-7.07,1.95-14.89,2.85-23.46,2.71-13.08-.3-24.78-2.67-35.08-7.11-10.3-4.43-19.03-10.49-26.17-18.16-7.14-7.67-12.6-16.47-16.36-26.39-3.76-9.93-5.64-20.53-5.64-31.81,0-12.63,1.92-24.21,5.75-34.74,3.84-10.53,9.32-19.63,16.47-27.3,7.14-7.67,15.68-13.61,25.6-17.82,9.92-4.21,20.9-6.31,32.94-6.31,11.13,0,20.98,1.51,29.55,4.51,8.57,3.01,15.56,6.24,20.98,9.7l-12.86,30.91c-3.76-2.86-8.76-5.83-15-8.91-6.24-3.08-13.42-4.63-21.54-4.63-6.32,0-12.37,1.32-18.16,3.95-5.79,2.63-10.91,6.36-15.34,11.17-4.44,4.81-7.93,10.42-10.49,16.81-2.56,6.39-3.83,13.35-3.83,20.87,0,7.97,1.16,15.27,3.5,21.88,2.33,6.62,5.68,12.29,10.04,17.03s9.59,8.39,15.68,10.94c6.09,2.56,12.97,3.84,20.64,3.84,8.87,0,16.47-1.43,22.78-4.29,6.32-2.85,11.13-5.86,14.44-9.02l13.54,29.33Z"/>
        <path class="ftrl-c4" d="M531.06,135.53c0-11.43,2.18-22.26,6.54-32.49,4.36-10.23,10.41-19.29,18.16-27.18,7.74-7.9,16.73-14.1,26.96-18.61,10.22-4.51,21.2-6.77,32.94-6.77s22.48,2.25,32.71,6.77,19.29,10.71,27.18,18.61c7.9,7.9,14.06,16.96,18.5,27.18,4.44,10.23,6.66,21.06,6.66,32.49s-2.22,22.71-6.66,32.94c-4.44,10.23-10.6,19.21-18.5,26.96-7.89,7.75-16.96,13.8-27.18,18.16-10.23,4.36-21.13,6.54-32.71,6.54s-22.71-2.18-32.94-6.54c-10.23-4.36-19.22-10.41-26.96-18.16-7.75-7.74-13.8-16.73-18.16-26.96-4.36-10.23-6.54-21.21-6.54-32.94ZM564.9,135.53c0,7.37,1.32,14.25,3.95,20.64,2.63,6.4,6.32,12.04,11.05,16.92,4.74,4.89,10.23,8.68,16.47,11.39,6.24,2.71,13.05,4.06,20.41,4.06s13.65-1.35,19.74-4.06c6.09-2.71,11.39-6.5,15.9-11.39,4.51-4.89,8.04-10.53,10.6-16.92,2.56-6.39,3.84-13.27,3.84-20.64s-1.32-14.51-3.95-20.98c-2.63-6.46-6.24-12.15-10.83-17.03-4.59-4.89-9.96-8.69-16.13-11.39-6.17-2.71-12.86-4.06-20.08-4.06s-13.91,1.35-20.08,4.06c-6.17,2.71-11.58,6.51-16.24,11.39-4.66,4.89-8.27,10.57-10.83,17.03-2.56,6.47-3.84,13.46-3.84,20.98Z"/>
        <path class="ftrl-c4" d="M751.46,218.32V45.52h.22l92.27,130.85-13.99-3.16,92.04-127.69h.45v172.8h-32.71v-99.04l2.03,16.92-56.17,79.86h-.45l-57.75-79.86,5.64-15.57v97.68h-31.58Z"/>
        <path class="ftrl-c4" d="M987.88,218.32V45.52h.22l92.27,130.85-13.99-3.16,92.04-127.69h.45v172.8h-32.71v-99.04l2.03,16.92-56.17,79.86h-.45l-57.75-79.86,5.64-15.57v97.68h-31.58Z"/>
        <path class="ftrl-c4" d="M1253.63,156.96c0,5.27,1.58,10.3,4.74,15.12,3.16,4.81,7.33,8.72,12.52,11.73,5.19,3.01,10.86,4.51,17.03,4.51,6.77,0,12.78-1.5,18.05-4.51,5.26-3.01,9.43-6.92,12.52-11.73,3.08-4.81,4.62-9.85,4.62-15.12V52.29h32.26v105.35c0,12.18-3.01,22.98-9.02,32.37-6.02,9.4-14.14,16.77-24.36,22.11-10.23,5.34-21.58,8.01-34.07,8.01s-23.57-2.67-33.73-8.01c-10.15-5.34-18.24-12.71-24.25-22.11-6.02-9.4-9.02-20.19-9.02-32.37V52.29h32.71v104.67Z"/>
        <path class="ftrl-c4" d="M1566.07,225.09l-125.88-113.7,9.7,5.41.68,101.52h-33.16V45.75h1.35l123.17,113.25-7.22-3.16-.68-103.55h32.94v172.8h-.9Z"/>
        <path class="ftrl-c4" d="M1632.4,52.29h32.71v166.04h-32.71V52.29Z"/>
        <path class="ftrl-c4" d="M1723.76,52.29h111.89v31.58h-40.38v134.45h-32.71V83.87h-38.81v-31.58Z"/>
        <path class="ftrl-c4" d="M1932.88,166.66l-61.13-114.38h40.38l42.86,86.17-9.7.68,42.18-86.85h40.39l-62.26,114.38v51.66h-32.71v-51.66Z"/>
        <path class="ftrl-c4" d="M2066.43,58.15h104.9v10.6h-47.15v149.57h-11.05V68.75h-46.7v-10.6Z"/>
        <path class="ftrl-c4" d="M2206.07,218.32l67.68-167.16h.9l67.68,167.16h-12.41l-58.88-149.57,7.67-4.29-61.59,153.85h-11.05ZM2238.78,154.93h71.06l3.16,10.38h-76.93l2.71-10.38Z"/>
        <path class="ftrl-c4" d="M2386.09,218.32l54.14-84.6,5.86,9.7-46.47,74.9h-13.53ZM2388.35,58.15h13.76l104.22,160.17h-13.99l-104-160.17ZM2445.42,130.12l44.89-71.96h13.08l-51.66,80.76-6.32-8.8Z"/>
      </g>
    </g>
  </g>
</svg>